<svg width="68" height="68" viewBox="0 0 68 68" fill="none" xmlns="http://www.w3.org/2000/svg">
<rect width="68" height="68" rx="20" fill="#0328EE"/>
<g opacity="0.84992">
<path d="M48.6973 19.5031C46.2006 16.491 42.8315 14.3197 39.0499 13.2855C35.2684 12.2514 31.2585 12.4048 27.5677 13.7249C23.8769 15.045 20.685 17.4674 18.4278 20.6614C16.1705 23.8556 14.9579 27.6656 14.9553 31.5716V36.7537" stroke="white" stroke-opacity="0.4" stroke-width="4.92496" stroke-linecap="round" stroke-linejoin="round"/>
<path d="M21.0117 47.7566C23.6299 50.52 27.0206 52.4368 30.7448 53.2589C34.4691 54.081 38.3554 53.7706 41.9005 52.3678C45.4455 50.965 48.4862 48.5345 50.6288 45.391C52.7713 42.2474 53.9172 38.5355 53.9178 34.736V31.2859" stroke="white" stroke-opacity="0.4" stroke-width="4.92496" stroke-linecap="round" stroke-linejoin="round"/>
<path d="M23.5804 28.2663C23.5695 28.4741 23.5006 28.6759 23.3778 28.8511L15.3067 40.2399C15.084 40.5528 14.7175 40.7316 14.3331 40.7115C13.9487 40.6914 13.603 40.4754 13.4144 40.1411L6.58257 27.9743C6.38457 27.6202 6.39395 27.1862 6.61079 26.8418C6.82621 26.4959 7.21175 26.2957 7.61852 26.317L22.5215 27.0949C22.9283 27.1162 23.2907 27.3553 23.4686 27.7218C23.5537 27.8944 23.5901 28.0823 23.5804 28.2663Z" fill="white"/>
<path d="M44.8516 38.6356C44.8588 38.4304 44.9233 38.2301 45.0414 38.0553L52.8076 26.6804C53.0219 26.3679 53.3804 26.1852 53.7599 26.1984C54.1396 26.2116 54.4844 26.4187 54.6762 26.7453L61.6269 38.6321C61.8284 38.9781 61.8267 39.4065 61.6186 39.75C61.4121 40.095 61.0352 40.299 60.6335 40.285L45.9167 39.7731C45.515 39.7592 45.1532 39.5294 44.9714 39.1709C44.8845 39.0021 44.8452 38.8173 44.8516 38.6356Z" fill="white"/>
</g>
</svg>
