<svg width="283" height="258" viewBox="0 0 283 258" fill="none" xmlns="http://www.w3.org/2000/svg">
<g clip-path="url(#clip0_22_1646)">
<path fill-rule="evenodd" clip-rule="evenodd" d="M279.386 35.0338C279.386 15.6845 263.699 0.000976562 244.345 0.000976562H35.0389C15.6844 0.000976562 -0.00195312 15.6845 -0.00195312 35.0338V545.967C-0.00195312 565.316 15.6844 581 35.0389 581H244.345C263.699 581 279.386 565.316 279.386 545.967V35.0338ZM279.388 207.507H280.776C281.513 207.507 282.11 208.105 282.11 208.842V246.82C282.11 247.557 281.513 248.154 280.776 248.154H279.388V207.507ZM280.776 98.7742H279.388V173.145H280.776C281.513 173.145 282.11 172.548 282.11 171.811V100.109C282.11 99.3717 281.513 98.7742 280.776 98.7742Z" fill="#1C1B2D"/>
<path fill-rule="evenodd" clip-rule="evenodd" d="M273.542 35.032V545.965C273.542 562.081 260.468 575.154 244.345 575.154H35.0389C18.9154 575.154 5.84167 562.081 5.84167 545.965V35.032C5.84167 18.9162 18.9154 5.84375 35.0389 5.84375H244.345C260.468 5.84375 273.542 18.9162 273.542 35.032Z" fill="#23213B"/>
<path fill-rule="evenodd" clip-rule="evenodd" d="M267.54 35.0341V545.967C267.54 558.763 257.154 569.138 244.347 569.138H35.0412C22.2342 569.138 11.8478 558.763 11.8478 545.967V35.0341C11.8478 22.2383 22.2342 11.8633 35.0412 11.8633H244.347C257.154 11.8633 267.54 22.2383 267.54 35.0341Z" fill="#353447"/>
<path d="M139.697 29.1168C143.357 29.1168 146.325 26.1488 146.325 22.4876C146.325 18.8264 143.357 15.8584 139.697 15.8584C136.036 15.8584 133.068 18.8264 133.068 22.4876C133.068 26.1488 136.036 29.1168 139.697 29.1168Z" fill="#1C1B2D"/>
</g>
<defs>
<clipPath id="clip0_22_1646">
<rect width="282.111" height="581" fill="white"/>
</clipPath>
</defs>
</svg>
